<svg xmlns="http://www.w3.org/2000/svg" width="512" height="512" viewBox="0 0 512 512" role="img" aria-labelledby="title">
  <title id="title">SoleHaus logo</title>
  <rect width="512" height="512" rx="96" fill="#1B2A4A"/>
  <path fill="#FF6B35" d="M118 308c42 38 104 58 184 58 47 0 82-8 105-24 20-14 28-32 23-52-5-18-20-29-46-34l-72-14c-20-4-36-15-47-33l-28-47c-7-12-19-18-35-18h-34c-12 0-20 12-15 23l28 60c7 16 3 34-11 44-16 12-34 18-54 18-15 0-22 12-12 19l14 10Z"/>
  <path fill="#FFFFFF" d="M117 332h286c13 0 24 11 24 24s-11 24-24 24H131c-28 0-52-18-60-44-4-14 12-25 24-16l22 12Z"/>
  <text x="256" y="449" text-anchor="middle" fill="#FFFFFF" font-family="Arial, sans-serif" font-size="48" font-weight="700">SH</text>
</svg>
